<svg xmlns="http://www.w3.org/2000/svg" width="79" height="52" fill="none" viewBox="0 0 79 52"><g filter="url(#filter0_dd_56_161)"><mask id="path-1-outside-1_56_161" width="73" height="46" x="3.432" y="3.432" fill="#000" maskUnits="userSpaceOnUse"><rect width="73" height="46" x="3.432" y="3.432" fill="#fff"/><path d="M11.6396 24V7.10401H15.9356V24H11.6396ZM6.43164 10.68V6.98401H21.1436V10.68H6.43164Z"/><path d="M20.5361 24V12.264H24.7121V24H20.5361ZM24.7121 17.616L22.8401 16.032C23.3041 14.704 23.9201 13.704 24.6881 13.032C25.4561 12.36 26.4561 12.024 27.6881 12.024C28.2481 12.024 28.7281 12.096 29.1281 12.24C29.5441 12.384 29.8961 12.608 30.1841 12.912L27.7601 16.152C27.6321 16.008 27.4481 15.896 27.2081 15.816C26.9841 15.72 26.7281 15.672 26.4401 15.672C25.8961 15.672 25.4721 15.84 25.1681 16.176C24.8641 16.496 24.7121 16.976 24.7121 17.616Z"/><path d="M30.9653 24V12.264H35.1653V24H30.9653ZM33.0533 10.896C32.4293 10.896 31.9093 10.688 31.4933 10.272C31.0773 9.84001 30.8693 9.30401 30.8693 8.66401C30.8693 8.04001 31.0773 7.51201 31.4933 7.08001C31.9093 6.64801 32.4293 6.43201 33.0533 6.43201C33.7093 6.43201 34.2373 6.64801 34.6373 7.08001C35.0533 7.51201 35.2613 8.04001 35.2613 8.66401C35.2613 9.30401 35.0533 9.84001 34.6373 10.272C34.2373 10.688 33.7093 10.896 33.0533 10.896Z"/><path d="M41.1266 24L36.3506 12.264H40.8146L43.8626 22.152H42.1586L45.1826 12.264H49.5986L44.8226 24H41.1266Z"/><path d="M50.77 24V12.264H54.97V24H50.77ZM52.858 10.896C52.234 10.896 51.714 10.688 51.298 10.272C50.882 9.84001 50.674 9.30401 50.674 8.66401C50.674 8.04001 50.882 7.51201 51.298 7.08001C51.714 6.64801 52.234 6.43201 52.858 6.43201C53.514 6.43201 54.042 6.64801 54.442 7.08001C54.858 7.51201 55.066 8.04001 55.066 8.66401C55.066 9.30401 54.858 9.84001 54.442 10.272C54.042 10.688 53.514 10.896 52.858 10.896Z"/><path d="M62.2993 24.24C61.2113 24.24 60.2433 23.976 59.3953 23.448C58.5473 22.92 57.8833 22.2 57.4033 21.288C56.9233 20.36 56.6833 19.312 56.6833 18.144C56.6833 16.96 56.9233 15.904 57.4033 14.976C57.8833 14.048 58.5473 13.328 59.3953 12.816C60.2433 12.288 61.2113 12.024 62.2993 12.024C63.0353 12.024 63.7073 12.16 64.3153 12.432C64.9233 12.688 65.4193 13.056 65.8033 13.536C66.2033 14.016 66.4433 14.56 66.5233 15.168V21.072C66.4433 21.696 66.2033 22.248 65.8033 22.728C65.4193 23.192 64.9233 23.56 64.3153 23.832C63.7073 24.104 63.0353 24.24 62.2993 24.24ZM63.1873 20.52C63.8753 20.52 64.4273 20.296 64.8433 19.848C65.2753 19.4 65.4913 18.824 65.4913 18.12C65.4913 17.656 65.3953 17.248 65.2033 16.896C65.0113 16.544 64.7393 16.264 64.3873 16.056C64.0513 15.848 63.6593 15.744 63.2113 15.744C62.7633 15.744 62.3633 15.848 62.0113 16.056C61.6753 16.264 61.4033 16.552 61.1953 16.92C61.0033 17.272 60.9073 17.672 60.9073 18.12C60.9073 18.584 61.0033 19 61.1953 19.368C61.3873 19.72 61.6593 20 62.0113 20.208C62.3633 20.416 62.7553 20.52 63.1873 20.52ZM65.3233 24V20.856L65.9233 17.976L65.3233 15.144V12.264H69.4273V24H65.3233Z"/><path d="M46.7916 44.312C45.4796 44.312 44.2716 44.088 43.1676 43.64C42.0636 43.192 41.0956 42.568 40.2636 41.768C39.4476 40.968 38.8076 40.032 38.3436 38.96C37.8956 37.872 37.6716 36.704 37.6716 35.456C37.6716 34.208 37.8956 33.056 38.3436 32C38.7916 30.928 39.4236 29.992 40.2396 29.192C41.0556 28.392 42.0156 27.776 43.1196 27.344C44.2236 26.896 45.4316 26.672 46.7436 26.672C48.0556 26.672 49.2636 26.896 50.3676 27.344C51.4716 27.776 52.4316 28.392 53.2476 29.192C54.0636 29.992 54.6956 30.928 55.1436 32C55.6076 33.072 55.8396 34.232 55.8396 35.48C55.8396 36.728 55.6076 37.888 55.1436 38.96C54.6956 40.032 54.0636 40.976 53.2476 41.792C52.4316 42.592 51.4716 43.216 50.3676 43.664C49.2796 44.096 48.0876 44.312 46.7916 44.312ZM54.2796 45.464L46.1676 37.352L48.5676 34.976L56.6556 43.064L54.2796 45.464ZM46.7436 40.472C47.7036 40.472 48.5356 40.264 49.2396 39.848C49.9436 39.432 50.4876 38.848 50.8716 38.096C51.2556 37.344 51.4476 36.464 51.4476 35.456C51.4476 34.72 51.3356 34.048 51.1116 33.44C50.9036 32.832 50.5916 32.312 50.1756 31.88C49.7596 31.432 49.2636 31.088 48.6876 30.848C48.1116 30.608 47.4636 30.488 46.7436 30.488C45.7996 30.488 44.9676 30.696 44.2476 31.112C43.5436 31.512 42.9996 32.088 42.6156 32.84C42.2316 33.592 42.0396 34.464 42.0396 35.456C42.0396 36.224 42.1516 36.92 42.3756 37.544C42.5996 38.152 42.9116 38.68 43.3116 39.128C43.7276 39.56 44.2236 39.896 44.7996 40.136C45.3916 40.36 46.0396 40.472 46.7436 40.472Z"/><path d="M61.7946 37.112V34.04H65.0346C65.7386 34.04 66.2746 33.872 66.6426 33.536C67.0266 33.184 67.2186 32.712 67.2186 32.12C67.2186 31.544 67.0266 31.08 66.6426 30.728C66.2746 30.36 65.7386 30.176 65.0346 30.176H61.7946V26.984H65.6346C66.7866 26.984 67.7946 27.2 68.6586 27.632C69.5386 28.064 70.2266 28.656 70.7226 29.408C71.2186 30.16 71.4666 31.04 71.4666 32.048C71.4666 33.056 71.2106 33.944 70.6986 34.712C70.2026 35.464 69.5066 36.056 68.6106 36.488C67.7146 36.904 66.6666 37.112 65.4666 37.112H61.7946ZM58.3866 44V26.984H62.6826V44H58.3866ZM67.6026 44L62.6586 36.704L66.5226 35.768L72.5706 44H67.6026Z"/></mask><path fill="#fff" d="M11.6396 24V7.10401H15.9356V24H11.6396ZM6.43164 10.68V6.98401H21.1436V10.68H6.43164Z"/><path fill="#fff" d="M20.5361 24V12.264H24.7121V24H20.5361ZM24.7121 17.616L22.8401 16.032C23.3041 14.704 23.9201 13.704 24.6881 13.032C25.4561 12.36 26.4561 12.024 27.6881 12.024C28.2481 12.024 28.7281 12.096 29.1281 12.24C29.5441 12.384 29.8961 12.608 30.1841 12.912L27.7601 16.152C27.6321 16.008 27.4481 15.896 27.2081 15.816C26.9841 15.72 26.7281 15.672 26.4401 15.672C25.8961 15.672 25.4721 15.84 25.1681 16.176C24.8641 16.496 24.7121 16.976 24.7121 17.616Z"/><path fill="#fff" d="M30.9653 24V12.264H35.1653V24H30.9653ZM33.0533 10.896C32.4293 10.896 31.9093 10.688 31.4933 10.272C31.0773 9.84001 30.8693 9.30401 30.8693 8.66401C30.8693 8.04001 31.0773 7.51201 31.4933 7.08001C31.9093 6.64801 32.4293 6.43201 33.0533 6.43201C33.7093 6.43201 34.2373 6.64801 34.6373 7.08001C35.0533 7.51201 35.2613 8.04001 35.2613 8.66401C35.2613 9.30401 35.0533 9.84001 34.6373 10.272C34.2373 10.688 33.7093 10.896 33.0533 10.896Z"/><path fill="#fff" d="M41.1266 24L36.3506 12.264H40.8146L43.8626 22.152H42.1586L45.1826 12.264H49.5986L44.8226 24H41.1266Z"/><path fill="#fff" d="M50.77 24V12.264H54.97V24H50.77ZM52.858 10.896C52.234 10.896 51.714 10.688 51.298 10.272C50.882 9.84001 50.674 9.30401 50.674 8.66401C50.674 8.04001 50.882 7.51201 51.298 7.08001C51.714 6.64801 52.234 6.43201 52.858 6.43201C53.514 6.43201 54.042 6.64801 54.442 7.08001C54.858 7.51201 55.066 8.04001 55.066 8.66401C55.066 9.30401 54.858 9.84001 54.442 10.272C54.042 10.688 53.514 10.896 52.858 10.896Z"/><path fill="#fff" d="M62.2993 24.24C61.2113 24.24 60.2433 23.976 59.3953 23.448C58.5473 22.92 57.8833 22.2 57.4033 21.288C56.9233 20.36 56.6833 19.312 56.6833 18.144C56.6833 16.96 56.9233 15.904 57.4033 14.976C57.8833 14.048 58.5473 13.328 59.3953 12.816C60.2433 12.288 61.2113 12.024 62.2993 12.024C63.0353 12.024 63.7073 12.16 64.3153 12.432C64.9233 12.688 65.4193 13.056 65.8033 13.536C66.2033 14.016 66.4433 14.56 66.5233 15.168V21.072C66.4433 21.696 66.2033 22.248 65.8033 22.728C65.4193 23.192 64.9233 23.56 64.3153 23.832C63.7073 24.104 63.0353 24.24 62.2993 24.24ZM63.1873 20.52C63.8753 20.52 64.4273 20.296 64.8433 19.848C65.2753 19.4 65.4913 18.824 65.4913 18.12C65.4913 17.656 65.3953 17.248 65.2033 16.896C65.0113 16.544 64.7393 16.264 64.3873 16.056C64.0513 15.848 63.6593 15.744 63.2113 15.744C62.7633 15.744 62.3633 15.848 62.0113 16.056C61.6753 16.264 61.4033 16.552 61.1953 16.92C61.0033 17.272 60.9073 17.672 60.9073 18.12C60.9073 18.584 61.0033 19 61.1953 19.368C61.3873 19.72 61.6593 20 62.0113 20.208C62.3633 20.416 62.7553 20.52 63.1873 20.52ZM65.3233 24V20.856L65.9233 17.976L65.3233 15.144V12.264H69.4273V24H65.3233Z"/><path fill="#fff" d="M46.7916 44.312C45.4796 44.312 44.2716 44.088 43.1676 43.64C42.0636 43.192 41.0956 42.568 40.2636 41.768C39.4476 40.968 38.8076 40.032 38.3436 38.96C37.8956 37.872 37.6716 36.704 37.6716 35.456C37.6716 34.208 37.8956 33.056 38.3436 32C38.7916 30.928 39.4236 29.992 40.2396 29.192C41.0556 28.392 42.0156 27.776 43.1196 27.344C44.2236 26.896 45.4316 26.672 46.7436 26.672C48.0556 26.672 49.2636 26.896 50.3676 27.344C51.4716 27.776 52.4316 28.392 53.2476 29.192C54.0636 29.992 54.6956 30.928 55.1436 32C55.6076 33.072 55.8396 34.232 55.8396 35.48C55.8396 36.728 55.6076 37.888 55.1436 38.96C54.6956 40.032 54.0636 40.976 53.2476 41.792C52.4316 42.592 51.4716 43.216 50.3676 43.664C49.2796 44.096 48.0876 44.312 46.7916 44.312ZM54.2796 45.464L46.1676 37.352L48.5676 34.976L56.6556 43.064L54.2796 45.464ZM46.7436 40.472C47.7036 40.472 48.5356 40.264 49.2396 39.848C49.9436 39.432 50.4876 38.848 50.8716 38.096C51.2556 37.344 51.4476 36.464 51.4476 35.456C51.4476 34.72 51.3356 34.048 51.1116 33.44C50.9036 32.832 50.5916 32.312 50.1756 31.88C49.7596 31.432 49.2636 31.088 48.6876 30.848C48.1116 30.608 47.4636 30.488 46.7436 30.488C45.7996 30.488 44.9676 30.696 44.2476 31.112C43.5436 31.512 42.9996 32.088 42.6156 32.84C42.2316 33.592 42.0396 34.464 42.0396 35.456C42.0396 36.224 42.1516 36.92 42.3756 37.544C42.5996 38.152 42.9116 38.68 43.3116 39.128C43.7276 39.56 44.2236 39.896 44.7996 40.136C45.3916 40.36 46.0396 40.472 46.7436 40.472Z"/><path fill="#fff" d="M61.7946 37.112V34.04H65.0346C65.7386 34.04 66.2746 33.872 66.6426 33.536C67.0266 33.184 67.2186 32.712 67.2186 32.12C67.2186 31.544 67.0266 31.08 66.6426 30.728C66.2746 30.36 65.7386 30.176 65.0346 30.176H61.7946V26.984H65.6346C66.7866 26.984 67.7946 27.2 68.6586 27.632C69.5386 28.064 70.2266 28.656 70.7226 29.408C71.2186 30.16 71.4666 31.04 71.4666 32.048C71.4666 33.056 71.2106 33.944 70.6986 34.712C70.2026 35.464 69.5066 36.056 68.6106 36.488C67.7146 36.904 66.6666 37.112 65.4666 37.112H61.7946ZM58.3866 44V26.984H62.6826V44H58.3866ZM67.6026 44L62.6586 36.704L66.5226 35.768L72.5706 44H67.6026Z"/><path stroke="#000" stroke-linejoin="round" stroke-width="6" d="M11.6396 24V7.10401H15.9356V24H11.6396ZM6.43164 10.68V6.98401H21.1436V10.68H6.43164Z" mask="url(#path-1-outside-1_56_161)"/><path stroke="#000" stroke-linejoin="round" stroke-width="6" d="M20.5361 24V12.264H24.7121V24H20.5361ZM24.7121 17.616L22.8401 16.032C23.3041 14.704 23.9201 13.704 24.6881 13.032C25.4561 12.36 26.4561 12.024 27.6881 12.024C28.2481 12.024 28.7281 12.096 29.1281 12.24C29.5441 12.384 29.8961 12.608 30.1841 12.912L27.7601 16.152C27.6321 16.008 27.4481 15.896 27.2081 15.816C26.9841 15.72 26.7281 15.672 26.4401 15.672C25.8961 15.672 25.4721 15.84 25.1681 16.176C24.8641 16.496 24.7121 16.976 24.7121 17.616Z" mask="url(#path-1-outside-1_56_161)"/><path stroke="#000" stroke-linejoin="round" stroke-width="6" d="M30.9653 24V12.264H35.1653V24H30.9653ZM33.0533 10.896C32.4293 10.896 31.9093 10.688 31.4933 10.272C31.0773 9.84001 30.8693 9.30401 30.8693 8.66401C30.8693 8.04001 31.0773 7.51201 31.4933 7.08001C31.9093 6.64801 32.4293 6.43201 33.0533 6.43201C33.7093 6.43201 34.2373 6.64801 34.6373 7.08001C35.0533 7.51201 35.2613 8.04001 35.2613 8.66401C35.2613 9.30401 35.0533 9.84001 34.6373 10.272C34.2373 10.688 33.7093 10.896 33.0533 10.896Z" mask="url(#path-1-outside-1_56_161)"/><path stroke="#000" stroke-linejoin="round" stroke-width="6" d="M41.1266 24L36.3506 12.264H40.8146L43.8626 22.152H42.1586L45.1826 12.264H49.5986L44.8226 24H41.1266Z" mask="url(#path-1-outside-1_56_161)"/><path stroke="#000" stroke-linejoin="round" stroke-width="6" d="M50.77 24V12.264H54.97V24H50.77ZM52.858 10.896C52.234 10.896 51.714 10.688 51.298 10.272C50.882 9.84001 50.674 9.30401 50.674 8.66401C50.674 8.04001 50.882 7.51201 51.298 7.08001C51.714 6.64801 52.234 6.43201 52.858 6.43201C53.514 6.43201 54.042 6.64801 54.442 7.08001C54.858 7.51201 55.066 8.04001 55.066 8.66401C55.066 9.30401 54.858 9.84001 54.442 10.272C54.042 10.688 53.514 10.896 52.858 10.896Z" mask="url(#path-1-outside-1_56_161)"/><path stroke="#000" stroke-linejoin="round" stroke-width="6" d="M62.2993 24.24C61.2113 24.24 60.2433 23.976 59.3953 23.448C58.5473 22.92 57.8833 22.2 57.4033 21.288C56.9233 20.36 56.6833 19.312 56.6833 18.144C56.6833 16.96 56.9233 15.904 57.4033 14.976C57.8833 14.048 58.5473 13.328 59.3953 12.816C60.2433 12.288 61.2113 12.024 62.2993 12.024C63.0353 12.024 63.7073 12.16 64.3153 12.432C64.9233 12.688 65.4193 13.056 65.8033 13.536C66.2033 14.016 66.4433 14.56 66.5233 15.168V21.072C66.4433 21.696 66.2033 22.248 65.8033 22.728C65.4193 23.192 64.9233 23.56 64.3153 23.832C63.7073 24.104 63.0353 24.24 62.2993 24.24ZM63.1873 20.52C63.8753 20.52 64.4273 20.296 64.8433 19.848C65.2753 19.4 65.4913 18.824 65.4913 18.12C65.4913 17.656 65.3953 17.248 65.2033 16.896C65.0113 16.544 64.7393 16.264 64.3873 16.056C64.0513 15.848 63.6593 15.744 63.2113 15.744C62.7633 15.744 62.3633 15.848 62.0113 16.056C61.6753 16.264 61.4033 16.552 61.1953 16.92C61.0033 17.272 60.9073 17.672 60.9073 18.12C60.9073 18.584 61.0033 19 61.1953 19.368C61.3873 19.72 61.6593 20 62.0113 20.208C62.3633 20.416 62.7553 20.52 63.1873 20.52ZM65.3233 24V20.856L65.9233 17.976L65.3233 15.144V12.264H69.4273V24H65.3233Z" mask="url(#path-1-outside-1_56_161)"/><path stroke="#000" stroke-linejoin="round" stroke-width="6" d="M46.7916 44.312C45.4796 44.312 44.2716 44.088 43.1676 43.64C42.0636 43.192 41.0956 42.568 40.2636 41.768C39.4476 40.968 38.8076 40.032 38.3436 38.96C37.8956 37.872 37.6716 36.704 37.6716 35.456C37.6716 34.208 37.8956 33.056 38.3436 32C38.7916 30.928 39.4236 29.992 40.2396 29.192C41.0556 28.392 42.0156 27.776 43.1196 27.344C44.2236 26.896 45.4316 26.672 46.7436 26.672C48.0556 26.672 49.2636 26.896 50.3676 27.344C51.4716 27.776 52.4316 28.392 53.2476 29.192C54.0636 29.992 54.6956 30.928 55.1436 32C55.6076 33.072 55.8396 34.232 55.8396 35.48C55.8396 36.728 55.6076 37.888 55.1436 38.96C54.6956 40.032 54.0636 40.976 53.2476 41.792C52.4316 42.592 51.4716 43.216 50.3676 43.664C49.2796 44.096 48.0876 44.312 46.7916 44.312ZM54.2796 45.464L46.1676 37.352L48.5676 34.976L56.6556 43.064L54.2796 45.464ZM46.7436 40.472C47.7036 40.472 48.5356 40.264 49.2396 39.848C49.9436 39.432 50.4876 38.848 50.8716 38.096C51.2556 37.344 51.4476 36.464 51.4476 35.456C51.4476 34.72 51.3356 34.048 51.1116 33.44C50.9036 32.832 50.5916 32.312 50.1756 31.88C49.7596 31.432 49.2636 31.088 48.6876 30.848C48.1116 30.608 47.4636 30.488 46.7436 30.488C45.7996 30.488 44.9676 30.696 44.2476 31.112C43.5436 31.512 42.9996 32.088 42.6156 32.84C42.2316 33.592 42.0396 34.464 42.0396 35.456C42.0396 36.224 42.1516 36.92 42.3756 37.544C42.5996 38.152 42.9116 38.68 43.3116 39.128C43.7276 39.56 44.2236 39.896 44.7996 40.136C45.3916 40.36 46.0396 40.472 46.7436 40.472Z" mask="url(#path-1-outside-1_56_161)"/><path stroke="#000" stroke-linejoin="round" stroke-width="6" d="M61.7946 37.112V34.04H65.0346C65.7386 34.04 66.2746 33.872 66.6426 33.536C67.0266 33.184 67.2186 32.712 67.2186 32.12C67.2186 31.544 67.0266 31.08 66.6426 30.728C66.2746 30.36 65.7386 30.176 65.0346 30.176H61.7946V26.984H65.6346C66.7866 26.984 67.7946 27.2 68.6586 27.632C69.5386 28.064 70.2266 28.656 70.7226 29.408C71.2186 30.16 71.4666 31.04 71.4666 32.048C71.4666 33.056 71.2106 33.944 70.6986 34.712C70.2026 35.464 69.5066 36.056 68.6106 36.488C67.7146 36.904 66.6666 37.112 65.4666 37.112H61.7946ZM58.3866 44V26.984H62.6826V44H58.3866ZM67.6026 44L62.6586 36.704L66.5226 35.768L72.5706 44H67.6026Z" mask="url(#path-1-outside-1_56_161)"/></g><defs><filter id="filter0_dd_56_161" width="78.539" height="51.432" x=".232" y=".232" color-interpolation-filters="sRGB" filterUnits="userSpaceOnUse"><feFlood flood-opacity="0" result="BackgroundImageFix"/><feColorMatrix in="SourceAlpha" result="hardAlpha" type="matrix" values="0 0 0 0 0 0 0 0 0 0 0 0 0 0 0 0 0 0 127 0"/><feOffset dx="2" dy="2"/><feComposite in2="hardAlpha" operator="out"/><feColorMatrix type="matrix" values="0 0 0 0 0 0 0 0 0 0 0 0 0 0 0 0 0 0 1 0"/><feBlend in2="BackgroundImageFix" mode="normal" result="effect1_dropShadow_56_161"/><feColorMatrix in="SourceAlpha" result="hardAlpha" type="matrix" values="0 0 0 0 0 0 0 0 0 0 0 0 0 0 0 0 0 0 127 0"/><feOffset/><feGaussianBlur stdDeviation="1.6"/><feComposite in2="hardAlpha" operator="out"/><feColorMatrix type="matrix" values="0 0 0 0 0 0 0 0 0 0 0 0 0 0 0 0 0 0 0.25 0"/><feBlend in2="effect1_dropShadow_56_161" mode="normal" result="effect2_dropShadow_56_161"/><feBlend in="SourceGraphic" in2="effect2_dropShadow_56_161" mode="normal" result="shape"/></filter></defs></svg>