<svg xmlns="http://www.w3.org/2000/svg" xmlns:svg="http://www.w3.org/2000/svg" id="svg1" width="391.251" height="857.966" version="1.1" viewBox="0 0 103.518 227.004" xml:space="preserve"><defs id="defs1"><filter style="color-interpolation-filters:sRGB" id="filter154" width="1.128" height="1.148" x="-.064" y="-.074"><feComposite id="feComposite154" in="SourceGraphic" in2="comp1" operator="over" result="comp2"/></filter></defs><g id="layer1" transform="translate(533.08819,-10.066046)"><g id="g389" transform="translate(-982.46875,-490.30613)"><g id="g388"><g id="g387"><path style="fill:#14ff72;fill-opacity:1;stroke:#000;stroke-width:9.746;stroke-linecap:round;stroke-linejoin:round;stroke-miterlimit:3.4;stroke-dasharray:none;stroke-opacity:1;paint-order:stroke fill markers" id="path380" d="m 485.60599,677.05272 v 45.45007"/><path style="fill:#14ff72;fill-opacity:1;stroke:#000;stroke-width:9.746;stroke-linecap:round;stroke-linejoin:round;stroke-miterlimit:3.4;stroke-dasharray:none;stroke-opacity:1;paint-order:stroke fill markers" id="path381" d="m 513.65182,677.05272 v 45.45007"/><path style="fill:#14ff72;fill-opacity:1;stroke:#000;stroke-width:9.746;stroke-linecap:round;stroke-linejoin:round;stroke-miterlimit:3.4;stroke-dasharray:none;stroke-opacity:1;paint-order:stroke fill markers" id="path382" d="M 546.15135,587.2442 517.7536,670.53372"/><path style="fill:#14ff72;fill-opacity:1;stroke:#000;stroke-width:9.746;stroke-linecap:round;stroke-linejoin:round;stroke-miterlimit:3.4;stroke-dasharray:none;stroke-opacity:1;paint-order:stroke fill markers" id="path383" d="M 482.65131,670.53372 454.25356,587.2442"/><path id="path384" style="fill:#000;fill-opacity:1;stroke:#000;stroke-width:9.746;stroke-linecap:round;stroke-linejoin:round;stroke-miterlimit:3.4;stroke-dasharray:none;stroke-opacity:1;paint-order:stroke fill markers" d="m 464.75355,510.23398 c -1.62793,0 -2.93832,1.31039 -2.93832,2.93832 v 80.33411 c 0,1.62793 1.31039,2.93832 2.93832,2.93832 h 33.86511 l -35.60402,61.66807 h 83.81193 l -35.60402,-61.66807 h 33.86511 c 1.62793,0 2.93832,-1.31039 2.93832,-2.93832 V 513.1723 c 0,-1.62793 -1.31039,-2.93832 -2.93832,-2.93832 z m 40.16705,153.4759 c -13.5265,0 -24.41608,10.86165 -24.41608,24.35355 v 12.67778 h 10.39317 38.439 v -12.67778 c 0,-13.4919 -10.88959,-24.35355 -24.41609,-24.35355 z"/><path id="path385" style="fill:#a5a6a5;fill-opacity:1;stroke:#000;stroke-width:10.746;stroke-linecap:round;stroke-linejoin:round;stroke-miterlimit:3.4;paint-order:stroke fill markers" d="m 499.62891,658.41797 c 13.52651,0 24.41609,10.86171 24.41609,24.35362 v 12.67799 h -48.83219 v -12.67799 c 0,-13.49191 10.88958,-24.35362 24.4161,-24.35362 z"/><rect style="fill:#fff;fill-opacity:1;stroke:#030802;stroke-width:9.14041;stroke-linecap:round;stroke-linejoin:round;stroke-miterlimit:3.4;stroke-dasharray:none;stroke-opacity:1;paint-order:stroke fill markers" id="rect385" width="86.211" height="86.211" x="456.523" y="504.942" ry="2.938"/><path style="fill:#a5a6a5;fill-opacity:1;stroke:#000;stroke-width:12.6429;stroke-linecap:round;stroke-linejoin:round;stroke-miterlimit:3.4;stroke-dasharray:none;stroke-opacity:1;paint-order:stroke fill markers;filter:url(#filter154)" id="path386" d="m 651.12482,543.56605 -98.6062,0 49.3031,-85.39548 z" transform="matrix(0.8499643,0,0,0.8499643,-11.898069,190.8095)"/><rect style="fill:#000;fill-opacity:1;stroke:none;stroke-width:12.643;stroke-linecap:round;stroke-linejoin:round;stroke-miterlimit:3.4;stroke-dasharray:none;stroke-opacity:1;paint-order:stroke fill markers;filter:url(#filter154)" id="rect386" width="7.854" height="16.624" x="483.796" y="623.835" rx="3.927" ry="4.395"/><rect style="fill:#000;fill-opacity:1;stroke:none;stroke-width:12.643;stroke-linecap:round;stroke-linejoin:round;stroke-miterlimit:3.4;stroke-dasharray:none;stroke-opacity:1;paint-order:stroke fill markers;filter:url(#filter154)" id="rect387" width="7.854" height="16.624" x="507.608" y="623.835" rx="3.927" ry="4.395"/></g></g></g></g></svg>