<svg xmlns="http://www.w3.org/2000/svg" xmlns:svg="http://www.w3.org/2000/svg" id="svg1" width="391.25" height="857.966" version="1.1" viewBox="0 0 103.518 227.004" xml:space="preserve"><defs id="defs1"><filter style="color-interpolation-filters:sRGB" id="filter154" width="1.128" height="1.148" x="-.064" y="-.074"><feComposite id="feComposite154" in="SourceGraphic" in2="comp1" operator="over" result="comp2"/></filter></defs><g id="layer1" transform="translate(400.79645,-10.066046)"><g id="g416" transform="translate(-982.46875,-490.30613)"><path style="fill:#14ff72;fill-opacity:1;stroke:#000;stroke-width:9.746;stroke-linecap:round;stroke-linejoin:round;stroke-miterlimit:3.4;stroke-dasharray:none;stroke-opacity:1;paint-order:stroke fill markers" id="path403" d="m 617.89774,677.05272 v 45.45007"/><path style="fill:#14ff72;fill-opacity:1;stroke:#000;stroke-width:9.746;stroke-linecap:round;stroke-linejoin:round;stroke-miterlimit:3.4;stroke-dasharray:none;stroke-opacity:1;paint-order:stroke fill markers" id="path404" d="m 678.4431,587.2442 -28.39775,83.28952"/><path style="fill:#14ff72;fill-opacity:1;stroke:#000;stroke-width:9.746;stroke-linecap:round;stroke-linejoin:round;stroke-miterlimit:3.4;stroke-dasharray:none;stroke-opacity:1;paint-order:stroke fill markers" id="path405" d="m 645.94357,677.05272 v 45.45007"/><path style="fill:#14ff72;fill-opacity:1;stroke:#000;stroke-width:9.746;stroke-linecap:round;stroke-linejoin:round;stroke-miterlimit:3.4;stroke-dasharray:none;stroke-opacity:1;paint-order:stroke fill markers" id="path406" d="M 614.94306,670.53372 586.54531,587.2442"/><path id="path407" style="fill:#ff56ef;fill-opacity:1;stroke:#000;stroke-width:10.746;stroke-linecap:round;stroke-linejoin:round;stroke-miterlimit:3.4;paint-order:stroke fill markers" d="m 631.92066,658.41797 c 13.52651,0 24.41609,10.86171 24.41609,24.35362 v 12.67799 h -48.83219 v -12.67799 c 0,-13.49191 10.88958,-24.35362 24.4161,-24.35362 z"/><rect style="fill:#fff;fill-opacity:1;stroke:#030802;stroke-width:9.14041;stroke-linecap:round;stroke-linejoin:round;stroke-miterlimit:3.4;stroke-dasharray:none;stroke-opacity:1;paint-order:stroke fill markers" id="rect407" width="86.211" height="86.211" x="588.815" y="504.942" ry="2.938"/><path id="path408" style="fill:#ff56ef;fill-opacity:1;stroke:#000;stroke-width:10.746;stroke-linecap:round;stroke-linejoin:round;stroke-miterlimit:3.4;paint-order:stroke fill markers" d="m 631.92064,652.82123 c 19.28234,0 34.80568,-15.4836 34.80568,-34.71662 v -29.71442 h -69.61136 v 29.71442 c 0,19.23302 15.52333,34.71662 34.80568,34.71662 z"/><rect style="fill:#000;fill-opacity:1;stroke:none;stroke-width:12.643;stroke-linecap:round;stroke-linejoin:round;stroke-miterlimit:3.4;stroke-dasharray:none;stroke-opacity:1;paint-order:stroke fill markers;filter:url(#filter154)" id="rect408" width="7.854" height="16.624" x="616.088" y="623.835" rx="3.927" ry="4.395"/><rect style="fill:#000;fill-opacity:1;stroke:none;stroke-width:12.643;stroke-linecap:round;stroke-linejoin:round;stroke-miterlimit:3.4;stroke-dasharray:none;stroke-opacity:1;paint-order:stroke fill markers;filter:url(#filter154)" id="rect409" width="7.854" height="16.624" x="639.9" y="623.835" rx="3.927" ry="4.395"/><path style="fill:#14ff72;fill-opacity:1;stroke:#000;stroke-width:9.746;stroke-linecap:round;stroke-linejoin:round;stroke-miterlimit:3.4;stroke-dasharray:none;stroke-opacity:1;paint-order:stroke fill markers" id="path409" d="m 617.89774,677.05272 v 45.45007"/><path style="fill:#14ff72;fill-opacity:1;stroke:#000;stroke-width:9.746;stroke-linecap:round;stroke-linejoin:round;stroke-miterlimit:3.4;stroke-dasharray:none;stroke-opacity:1;paint-order:stroke fill markers" id="path410" d="m 678.4431,587.2442 -28.39775,83.28952"/><path style="fill:#14ff72;fill-opacity:1;stroke:#000;stroke-width:9.746;stroke-linecap:round;stroke-linejoin:round;stroke-miterlimit:3.4;stroke-dasharray:none;stroke-opacity:1;paint-order:stroke fill markers" id="path411" d="m 645.94357,677.05272 v 45.45007"/><path style="fill:#14ff72;fill-opacity:1;stroke:#000;stroke-width:9.746;stroke-linecap:round;stroke-linejoin:round;stroke-miterlimit:3.4;stroke-dasharray:none;stroke-opacity:1;paint-order:stroke fill markers" id="path412" d="M 614.94306,670.53372 586.54531,587.2442"/><path id="path413" style="fill:#000;fill-opacity:1;stroke:#000;stroke-width:9.746;stroke-linecap:round;stroke-linejoin:round;stroke-miterlimit:3.4;stroke-dasharray:none;stroke-opacity:1;paint-order:stroke fill markers" d="m 597.04573,510.76315 c -1.62792,0 -2.93884,1.31039 -2.93884,2.93832 v 80.33411 c 0,1.62793 1.31092,2.93832 2.93884,2.93832 h 5.36091 v 26.95133 c 0,19.233 15.5233,34.71674 34.80563,34.71674 18.07718,0 32.85077,-13.60869 34.62683,-31.15727 0.1184,-1.1699 0.1788,-2.35741 0.1788,-3.55947 V 596.9739 h 5.36143 c 1.62792,0 2.93832,-1.31039 2.93832,-2.93832 v -80.33411 c 0,-1.62793 -1.3104,-2.93832 -2.93832,-2.93832 z m 40.16654,153.4759 c -13.52651,0 -24.41608,10.86165 -24.41608,24.35355 v 12.67778 h 10.39316 38.439 V 688.5926 c 0,-5.74581 -1.98012,-11.01055 -5.2927,-15.16652 -4.46578,-5.60277 -11.35742,-9.18703 -19.12338,-9.18703 z"/><path id="path414" style="fill:#a5a6a5;fill-opacity:1;stroke:#000;stroke-width:10.746;stroke-linecap:round;stroke-linejoin:round;stroke-miterlimit:3.4;paint-order:stroke fill markers" d="m 631.92066,658.41797 c 13.52651,0 24.41609,10.86171 24.41609,24.35362 v 12.67799 h -48.83219 v -12.67799 c 0,-13.49191 10.88958,-24.35362 24.4161,-24.35362 z"/><rect style="fill:#fff;fill-opacity:1;stroke:#030802;stroke-width:9.14041;stroke-linecap:round;stroke-linejoin:round;stroke-miterlimit:3.4;stroke-dasharray:none;stroke-opacity:1;paint-order:stroke fill markers" id="rect414" width="86.211" height="86.211" x="588.815" y="504.942" ry="2.938"/><path id="path415" style="fill:#a5a6a5;fill-opacity:1;stroke:#000;stroke-width:10.746;stroke-linecap:round;stroke-linejoin:round;stroke-miterlimit:3.4;paint-order:stroke fill markers" d="m 631.92064,652.82123 c 19.28234,0 34.80568,-15.4836 34.80568,-34.71662 v -29.71442 h -69.61136 v 29.71442 c 0,19.23302 15.52333,34.71662 34.80568,34.71662 z"/><rect style="fill:#000;fill-opacity:1;stroke:none;stroke-width:12.643;stroke-linecap:round;stroke-linejoin:round;stroke-miterlimit:3.4;stroke-dasharray:none;stroke-opacity:1;paint-order:stroke fill markers;filter:url(#filter154)" id="rect415" width="7.854" height="16.624" x="616.088" y="623.835" rx="3.927" ry="4.395"/><rect style="fill:#000;fill-opacity:1;stroke:none;stroke-width:12.643;stroke-linecap:round;stroke-linejoin:round;stroke-miterlimit:3.4;stroke-dasharray:none;stroke-opacity:1;paint-order:stroke fill markers;filter:url(#filter154)" id="rect416" width="7.854" height="16.624" x="639.9" y="623.835" rx="3.927" ry="4.395"/></g></g></svg>