<svg xmlns="http://www.w3.org/2000/svg" xmlns:svg="http://www.w3.org/2000/svg" id="svg1" width="391.252" height="857.966" version="1.1" viewBox="0 0 103.519 227.004" xml:space="preserve"><defs id="defs1"><filter style="color-interpolation-filters:sRGB" id="filter154" width="1.128" height="1.148" x="-.064" y="-.074"><feComposite id="feComposite154" in="SourceGraphic" in2="comp1" operator="over" result="comp2"/></filter></defs><g id="layer1" transform="translate(273.79635,-10.066046)"><g id="g396" transform="translate(-982.46875,-490.30613)"><path style="fill:#14ff72;fill-opacity:1;stroke:#000;stroke-width:9.746;stroke-linecap:round;stroke-linejoin:round;stroke-miterlimit:3.4;stroke-dasharray:none;stroke-opacity:1;paint-order:stroke fill markers" id="path389" d="m 744.89782,677.05272 v 45.45007"/><path style="fill:#14ff72;fill-opacity:1;stroke:#000;stroke-width:9.746;stroke-linecap:round;stroke-linejoin:round;stroke-miterlimit:3.4;stroke-dasharray:none;stroke-opacity:1;paint-order:stroke fill markers" id="path390" d="m 772.94365,677.05272 v 45.45007"/><path style="fill:#14ff72;fill-opacity:1;stroke:#000;stroke-width:9.746;stroke-linecap:round;stroke-linejoin:round;stroke-miterlimit:3.4;stroke-dasharray:none;stroke-opacity:1;paint-order:stroke fill markers" id="path391" d="m 805.44318,587.2442 -28.39775,83.28952"/><path style="fill:#14ff72;fill-opacity:1;stroke:#000;stroke-width:9.746;stroke-linecap:round;stroke-linejoin:round;stroke-miterlimit:3.4;stroke-dasharray:none;stroke-opacity:1;paint-order:stroke fill markers" id="path392" d="M 741.94314,670.53372 713.54539,587.2442"/><path id="path393" style="fill:#000;fill-opacity:1;stroke:#000;stroke-width:9.746;stroke-linecap:round;stroke-linejoin:round;stroke-miterlimit:3.4;stroke-dasharray:none;stroke-opacity:1;paint-order:stroke fill markers" d="m 724.04573,510.23398 c -1.62792,0 -2.93832,1.31039 -2.93832,2.93832 v 80.33411 c 0,1.76977 -2.47515,16.9587 3.7293,14.17019 l 24.99091,-11.23187 c -11.11979,5.47166 -18.17236,16.77828 -18.19579,29.17135 -4e-5,17.9937 8.42191,38.87051 26.41561,38.87047 17.9937,4e-5 38.74531,-20.87677 38.74527,-38.87047 -0.004,-12.37006 -2.74187,-26.36011 -18.09295,-29.17135 h 25.68009 c 1.62792,0 2.93832,-1.31039 2.93832,-2.93832 V 513.1723 c 0,-1.62793 -1.3104,-2.93832 -2.93832,-2.93832 z m 40.16654,153.4759 c -13.52651,0 -24.41608,10.86165 -24.41608,24.35355 v 12.67778 h 10.39316 38.439 v -12.67778 c 0,-13.4919 -10.88958,-24.35355 -24.41608,-24.35355 z"/><path id="path394" style="fill:#a5a6a5;fill-opacity:1;stroke:#000;stroke-width:10.746;stroke-linecap:round;stroke-linejoin:round;stroke-miterlimit:3.4;paint-order:stroke fill markers" d="m 758.92074,658.41797 c 13.52651,0 24.41609,10.86171 24.41609,24.35362 v 12.67799 h -48.83219 v -12.67799 c 0,-13.49191 10.88958,-24.35362 24.4161,-24.35362 z"/><rect style="fill:#fff;fill-opacity:1;stroke:#030802;stroke-width:9.14041;stroke-linecap:round;stroke-linejoin:round;stroke-miterlimit:3.4;stroke-dasharray:none;stroke-opacity:1;paint-order:stroke fill markers" id="rect394" width="86.211" height="86.211" x="715.816" y="504.942" ry="2.938"/><circle style="fill:#a5a6a5;fill-opacity:1;stroke:#000;stroke-width:10.746;stroke-linecap:round;stroke-linejoin:round;stroke-miterlimit:3.4;stroke-dasharray:none;stroke-opacity:1;paint-order:stroke fill markers" id="circle394" cx="758.921" cy="620.325" r="32.58"/><rect style="fill:#000;fill-opacity:1;stroke:none;stroke-width:12.643;stroke-linecap:round;stroke-linejoin:round;stroke-miterlimit:3.4;stroke-dasharray:none;stroke-opacity:1;paint-order:stroke fill markers;filter:url(#filter154)" id="rect395" width="7.854" height="16.624" x="743.088" y="623.835" rx="3.927" ry="4.395"/><rect style="fill:#000;fill-opacity:1;stroke:none;stroke-width:12.643;stroke-linecap:round;stroke-linejoin:round;stroke-miterlimit:3.4;stroke-dasharray:none;stroke-opacity:1;paint-order:stroke fill markers;filter:url(#filter154)" id="rect396" width="7.854" height="16.624" x="766.901" y="623.835" rx="3.927" ry="4.395"/></g></g></svg>