<svg xmlns="http://www.w3.org/2000/svg" xmlns:svg="http://www.w3.org/2000/svg" id="svg1" width="391.254" height="857.966" version="1.1" viewBox="0 0 103.519 227.004" xml:space="preserve"><defs id="defs1"><filter style="color-interpolation-filters:sRGB" id="filter154" width="1.128" height="1.148" x="-.064" y="-.074"><feComposite id="feComposite154" in="SourceGraphic" in2="comp1" operator="over" result="comp2"/></filter></defs><g id="layer1" transform="translate(146.79626,-10.066046)"><g id="g403" transform="translate(-982.46875,-490.30613)"><path style="fill:#14ff72;fill-opacity:1;stroke:#000;stroke-width:9.746;stroke-linecap:round;stroke-linejoin:round;stroke-miterlimit:3.4;stroke-dasharray:none;stroke-opacity:1;paint-order:stroke fill markers" id="path396" d="m 871.8979,677.05272 v 45.45007"/><path style="fill:#14ff72;fill-opacity:1;stroke:#000;stroke-width:9.746;stroke-linecap:round;stroke-linejoin:round;stroke-miterlimit:3.4;stroke-dasharray:none;stroke-opacity:1;paint-order:stroke fill markers" id="path397" d="m 932.44326,587.2442 -28.39775,83.28952"/><path style="fill:#14ff72;fill-opacity:1;stroke:#000;stroke-width:9.746;stroke-linecap:round;stroke-linejoin:round;stroke-miterlimit:3.4;stroke-dasharray:none;stroke-opacity:1;paint-order:stroke fill markers" id="path398" d="m 899.94373,677.05272 v 45.45007"/><path style="fill:#14ff72;fill-opacity:1;stroke:#000;stroke-width:9.746;stroke-linecap:round;stroke-linejoin:round;stroke-miterlimit:3.4;stroke-dasharray:none;stroke-opacity:1;paint-order:stroke fill markers" id="path399" d="M 868.94322,670.53372 840.54547,587.2442"/><path id="path400" style="fill:#000;fill-opacity:1;stroke:#000;stroke-width:9.746;stroke-linecap:round;stroke-linejoin:round;stroke-miterlimit:3.4;stroke-dasharray:none;stroke-opacity:1;paint-order:stroke fill markers" d="m 851.04625,510.23398 c -1.62793,0 -2.93832,1.31039 -2.93832,2.93832 v 80.33411 c 0,1.62793 1.31039,2.93832 2.93832,2.93832 h 33.75918 c -16.28821,13.19103 -33.69045,69.28466 -33.69045,69.28466 0,0 20.81496,-12.37909 40.09729,-12.37909 19.28232,0 40.0973,12.37909 40.0973,12.37909 0,0 -17.40173,-56.09363 -33.68994,-69.28466 h 33.76073 c 1.62793,0 2.93832,-1.31039 2.93832,-2.93832 V 513.1723 c 0,-1.62793 -1.31039,-2.93832 -2.93832,-2.93832 z m 40.16602,153.4759 c -13.52651,0 -24.41608,10.86165 -24.41608,24.35355 v 12.67778 h 10.39316 38.439 v -12.67778 c 0,-13.4919 -10.88958,-24.35355 -24.41608,-24.35355 z"/><path id="path401" style="fill:#a5a6a5;fill-opacity:1;stroke:#000;stroke-width:10.746;stroke-linecap:round;stroke-linejoin:round;stroke-miterlimit:3.4;paint-order:stroke fill markers" d="m 885.92082,658.41797 c 13.52651,0 24.41609,10.86171 24.41609,24.35362 v 12.67799 h -48.83219 v -12.67799 c 0,-13.49191 10.88958,-24.35362 24.4161,-24.35362 z"/><rect style="fill:#fff;fill-opacity:1;stroke:#030802;stroke-width:9.14041;stroke-linecap:round;stroke-linejoin:round;stroke-miterlimit:3.4;stroke-dasharray:none;stroke-opacity:1;paint-order:stroke fill markers" id="rect401" width="86.211" height="86.211" x="842.816" y="504.942" ry="2.938"/><path id="path402" style="fill:#a5a6a5;fill-opacity:1;stroke:#000;stroke-width:10.746;stroke-linecap:round;stroke-linejoin:round;stroke-miterlimit:3.4;paint-order:stroke fill markers" d="m 885.9208,648.05873 c 19.28234,0 40.09735,12.37921 40.09735,12.37921 0,0 -22.34803,-72.04775 -40.09735,-72.04775 -17.74932,0 -40.09735,72.04775 -40.09735,72.04775 0,0 20.815,-12.37921 40.09735,-12.37921 z"/><rect style="fill:#000;fill-opacity:1;stroke:none;stroke-width:12.643;stroke-linecap:round;stroke-linejoin:round;stroke-miterlimit:3.4;stroke-dasharray:none;stroke-opacity:1;paint-order:stroke fill markers;filter:url(#filter154)" id="rect402" width="7.854" height="16.624" x="870.089" y="623.835" rx="3.927" ry="4.395"/><rect style="fill:#000;fill-opacity:1;stroke:none;stroke-width:12.643;stroke-linecap:round;stroke-linejoin:round;stroke-miterlimit:3.4;stroke-dasharray:none;stroke-opacity:1;paint-order:stroke fill markers;filter:url(#filter154)" id="rect403" width="7.854" height="16.624" x="893.901" y="623.835" rx="3.927" ry="4.395"/></g></g></svg>